<mxfile host="Electron" agent="Mozilla/5.0 (Windows NT 10.0; Win64; x64) AppleWebKit/537.36 (KHTML, like Gecko) draw.io/26.1.1 Chrome/132.0.6834.210 Electron/34.3.3 Safari/537.36" version="26.1.1">
  <diagram name="Page-1" id="_Udy0-BQxQ--3m_fQ31l">
    <mxGraphModel dx="2074" dy="370" grid="1" gridSize="10" guides="1" tooltips="1" connect="1" arrows="1" fold="1" page="1" pageScale="1" pageWidth="1169" pageHeight="827" math="0" shadow="0">
      <root>
        <mxCell id="0" />
        <mxCell id="1" parent="0" />
        <mxCell id="L6UTxMjbnMYC1E1mVPvu-22" value="" style="edgeStyle=orthogonalEdgeStyle;rounded=0;orthogonalLoop=1;jettySize=auto;html=1;strokeColor=default;align=center;verticalAlign=middle;fontFamily=Helvetica;fontSize=11;fontColor=default;labelBackgroundColor=default;elbow=vertical;endArrow=open;endFill=1;" parent="1" source="L6UTxMjbnMYC1E1mVPvu-23" target="L6UTxMjbnMYC1E1mVPvu-32" edge="1">
          <mxGeometry relative="1" as="geometry" />
        </mxCell>
        <mxCell id="L6UTxMjbnMYC1E1mVPvu-23" value="&lt;span style=&quot;font-size: 16px;&quot;&gt;&lt;b&gt;ROB&lt;/b&gt;&lt;/span&gt;&lt;div&gt;&lt;span style=&quot;font-size: 16px;&quot;&gt;Register obyvateľov&lt;br&gt;&lt;/span&gt;&lt;div&gt;&lt;span style=&quot;text-indent: -0.38in; background-color: transparent; color: light-dark(rgb(0, 0, 0), rgb(255, 255, 255)); vertical-align: baseline;&quot;&gt;&lt;br&gt;&lt;/span&gt;&lt;/div&gt;&lt;div style=&quot;text-align: left; text-indent: -36.48px;&quot;&gt;&lt;br&gt;&lt;/div&gt;&lt;/div&gt;" style="html=1;outlineConnect=0;whiteSpace=wrap;fillColor=#66CCFF;shape=mxgraph.archimate3.application;appType=comp;archiType=square;verticalAlign=top;strokeColor=#000000;container=1;" parent="1" vertex="1">
          <mxGeometry x="30" y="1220" width="190" height="210" as="geometry" />
        </mxCell>
        <mxCell id="JTVFXVlE0ksMzV7S4W-K-3" value="&lt;span style=&quot;color: rgb(51, 51, 51);&quot;&gt;referenční údaje o fyzických osobách&lt;/span&gt;" style="text;strokeColor=none;align=left;fillColor=none;html=1;verticalAlign=top;whiteSpace=wrap;rounded=0;" vertex="1" parent="L6UTxMjbnMYC1E1mVPvu-23">
          <mxGeometry y="69.99842105263158" width="190" height="88.42105263157896" as="geometry" />
        </mxCell>
        <mxCell id="L6UTxMjbnMYC1E1mVPvu-24" value="" style="edgeStyle=orthogonalEdgeStyle;rounded=0;orthogonalLoop=1;jettySize=auto;html=1;strokeColor=default;align=center;verticalAlign=middle;fontFamily=Helvetica;fontSize=11;fontColor=default;labelBackgroundColor=default;elbow=vertical;endArrow=open;endFill=1;" parent="1" source="L6UTxMjbnMYC1E1mVPvu-25" target="L6UTxMjbnMYC1E1mVPvu-32" edge="1">
          <mxGeometry relative="1" as="geometry" />
        </mxCell>
        <mxCell id="L6UTxMjbnMYC1E1mVPvu-25" value="&lt;span style=&quot;font-size: 16px;&quot;&gt;&lt;b&gt;ROS&lt;/b&gt;&lt;/span&gt;&lt;div&gt;&lt;span style=&quot;font-size: 16px;&quot;&gt;Register osôb&lt;/span&gt;&lt;/div&gt;&lt;div&gt;&lt;span style=&quot;font-size: 16px;&quot;&gt;(PO, OVM)&lt;/span&gt;&lt;/div&gt;" style="html=1;outlineConnect=0;whiteSpace=wrap;fillColor=#66CCFF;shape=mxgraph.archimate3.application;appType=comp;archiType=square;verticalAlign=top;strokeColor=#000000;container=1;" parent="1" vertex="1">
          <mxGeometry x="240" y="1220" width="190" height="210" as="geometry" />
        </mxCell>
        <mxCell id="JTVFXVlE0ksMzV7S4W-K-2" value="&lt;span&gt;vede údaje vztahující se k právnickým osobám, podnikajícím fyzickým osobám a k Orgánům veřejné moci&lt;/span&gt;" style="text;strokeColor=none;align=left;fillColor=none;html=1;verticalAlign=top;whiteSpace=wrap;rounded=0;" vertex="1" parent="L6UTxMjbnMYC1E1mVPvu-25">
          <mxGeometry y="69.99842105263158" width="190" height="88.42105263157896" as="geometry" />
        </mxCell>
        <mxCell id="L6UTxMjbnMYC1E1mVPvu-26" value="" style="edgeStyle=orthogonalEdgeStyle;rounded=0;orthogonalLoop=1;jettySize=auto;html=1;strokeColor=default;align=center;verticalAlign=middle;fontFamily=Helvetica;fontSize=11;fontColor=default;labelBackgroundColor=default;elbow=vertical;endArrow=open;endFill=1;" parent="1" source="L6UTxMjbnMYC1E1mVPvu-27" target="L6UTxMjbnMYC1E1mVPvu-32" edge="1">
          <mxGeometry relative="1" as="geometry" />
        </mxCell>
        <mxCell id="L6UTxMjbnMYC1E1mVPvu-27" value="&lt;span style=&quot;font-size: 16px;&quot;&gt;&lt;b&gt;RUIAN&lt;/b&gt;&lt;/span&gt;&lt;div&gt;&lt;span style=&quot;text-align: start;&quot;&gt;&lt;font style=&quot;font-size: 16px;&quot;&gt;registr územní identifikace a nemovitostí&lt;/font&gt;&lt;/span&gt;&lt;/div&gt;" style="html=1;outlineConnect=0;whiteSpace=wrap;fillColor=#66CCFF;shape=mxgraph.archimate3.application;appType=comp;archiType=square;verticalAlign=top;strokeColor=#000000;container=1;" parent="1" vertex="1">
          <mxGeometry x="450" y="1220" width="190" height="210" as="geometry" />
        </mxCell>
        <mxCell id="JTVFXVlE0ksMzV7S4W-K-4" value="vede údaje vztahující se k územním prvkům a územně evidenčním jednotkám a nemovitostem" style="text;strokeColor=none;align=left;fillColor=none;html=1;verticalAlign=top;whiteSpace=wrap;rounded=0;" vertex="1" parent="L6UTxMjbnMYC1E1mVPvu-27">
          <mxGeometry y="69.99842105263158" width="190" height="88.42105263157896" as="geometry" />
        </mxCell>
        <mxCell id="L6UTxMjbnMYC1E1mVPvu-28" value="&lt;div&gt;&lt;br&gt;&lt;/div&gt;&lt;div&gt;&lt;br&gt;&lt;/div&gt;&lt;div&gt;&lt;br&gt;&lt;/div&gt;ISZR - Informační systém základních registrů" style="outlineConnect=0;whiteSpace=wrap;fillColor=#66CCFF;shape=mxgraph.archimate3.application;appType=comp;archiType=square;verticalAlign=top;strokeColor=#000000;align=center;html=1;fontStyle=1;fontSize=16;container=1;" parent="1" vertex="1">
          <mxGeometry x="30" y="980" width="820" height="200" as="geometry">
            <mxRectangle x="40" y="1030" width="70" height="30" as="alternateBounds" />
          </mxGeometry>
        </mxCell>
        <mxCell id="L6UTxMjbnMYC1E1mVPvu-29" value="&lt;font style=&quot;font-size: 14px;&quot;&gt;jehož prostřednictvím je zajišťováno sdílení dat mezi jednotlivými základními registry navzájem, základními registry a agendovými informačními systémy a agendovými informačními systémy navzájem&lt;/font&gt;" style="text;strokeColor=none;align=left;fillColor=none;html=1;verticalAlign=top;whiteSpace=wrap;rounded=0;spacingLeft=5;spacingRight=5;" parent="L6UTxMjbnMYC1E1mVPvu-28" vertex="1">
          <mxGeometry y="92" width="820" height="45" as="geometry" />
        </mxCell>
        <mxCell id="L6UTxMjbnMYC1E1mVPvu-33" value="Vonkašie rozhranie" style="html=1;outlineConnect=0;whiteSpace=wrap;shape=mxgraph.archimate3.application;appType=interface;archiType=square;fillColor=#00AEE8;strokeColor=#000000;" parent="L6UTxMjbnMYC1E1mVPvu-28" vertex="1">
          <mxGeometry x="30" y="10.53" width="760" height="31.58" as="geometry" />
        </mxCell>
        <mxCell id="L6UTxMjbnMYC1E1mVPvu-32" value="Vnútorné rozhranie" style="html=1;outlineConnect=0;whiteSpace=wrap;shape=mxgraph.archimate3.application;appType=interface;archiType=square;fillColor=#00AEE8;strokeColor=#000000;" parent="L6UTxMjbnMYC1E1mVPvu-28" vertex="1">
          <mxGeometry x="30" y="157.37" width="760" height="31.58" as="geometry" />
        </mxCell>
        <mxCell id="L6UTxMjbnMYC1E1mVPvu-30" value="" style="edgeStyle=orthogonalEdgeStyle;rounded=0;orthogonalLoop=1;jettySize=auto;html=1;strokeColor=default;align=center;verticalAlign=middle;fontFamily=Helvetica;fontSize=11;fontColor=default;labelBackgroundColor=default;elbow=vertical;endArrow=open;endFill=1;" parent="1" source="L6UTxMjbnMYC1E1mVPvu-31" target="L6UTxMjbnMYC1E1mVPvu-32" edge="1">
          <mxGeometry relative="1" as="geometry" />
        </mxCell>
        <mxCell id="L6UTxMjbnMYC1E1mVPvu-31" value="&lt;span style=&quot;font-size: 16px;&quot;&gt;&lt;b&gt;RPP&lt;/b&gt;&lt;/span&gt;&lt;div&gt;&lt;span style=&quot;text-align: start;&quot;&gt;&lt;font style=&quot;font-size: 16px;&quot;&gt;registr práv a povinností&lt;/font&gt;&lt;/span&gt;&lt;/div&gt;" style="html=1;outlineConnect=0;whiteSpace=wrap;fillColor=#66CCFF;shape=mxgraph.archimate3.application;appType=comp;archiType=square;verticalAlign=top;strokeColor=#000000;container=1;" parent="1" vertex="1">
          <mxGeometry x="660" y="1220" width="190" height="210" as="geometry" />
        </mxCell>
        <mxCell id="JTVFXVlE0ksMzV7S4W-K-5" value="Představuje přepis právních předpisů vymezujících výkon veřejné správy do strukturovaných údajů, které jsou využívány pro podporu&amp;nbsp; výkonu agend a přístup k údajům v základních registrech a v agendových informačních systémech poskytujících údaje.&amp;nbsp;" style="text;strokeColor=none;align=left;fillColor=none;html=1;verticalAlign=top;whiteSpace=wrap;rounded=0;spacingLeft=4;spacingRight=4;" vertex="1" parent="L6UTxMjbnMYC1E1mVPvu-31">
          <mxGeometry y="59.998421052631585" width="190" height="121.57894736842107" as="geometry" />
        </mxCell>
        <mxCell id="L6UTxMjbnMYC1E1mVPvu-34" value="&lt;span style=&quot;font-size: 16px;&quot;&gt;&lt;b&gt;AIS&lt;/b&gt;&lt;/span&gt;" style="html=1;outlineConnect=0;whiteSpace=wrap;fillColor=#66CCFF;shape=mxgraph.archimate3.application;appType=comp;archiType=square;verticalAlign=top;strokeColor=#000000;" parent="1" vertex="1">
          <mxGeometry x="360" y="860" width="120" height="60" as="geometry" />
        </mxCell>
        <mxCell id="L6UTxMjbnMYC1E1mVPvu-35" value="&lt;span style=&quot;font-size: 16px;&quot;&gt;&lt;b&gt;AIS&lt;/b&gt;&lt;/span&gt;" style="html=1;outlineConnect=0;whiteSpace=wrap;fillColor=#66CCFF;shape=mxgraph.archimate3.application;appType=comp;archiType=square;verticalAlign=top;strokeColor=#000000;" parent="1" vertex="1">
          <mxGeometry x="370" y="870" width="120" height="60" as="geometry" />
        </mxCell>
        <mxCell id="L6UTxMjbnMYC1E1mVPvu-36" value="&lt;span style=&quot;font-size: 16px;&quot;&gt;&lt;b&gt;AIS&lt;/b&gt;&lt;/span&gt;" style="html=1;outlineConnect=0;whiteSpace=wrap;fillColor=#66CCFF;shape=mxgraph.archimate3.application;appType=comp;archiType=square;verticalAlign=middle;strokeColor=#000000;" parent="1" vertex="1">
          <mxGeometry x="380" y="880" width="120" height="60" as="geometry" />
        </mxCell>
        <mxCell id="L6UTxMjbnMYC1E1mVPvu-37" style="edgeStyle=orthogonalEdgeStyle;rounded=0;orthogonalLoop=1;jettySize=auto;html=1;entryX=0.5;entryY=1;entryDx=0;entryDy=0;entryPerimeter=0;dashed=1;dashPattern=6 4;strokeColor=default;align=center;verticalAlign=middle;fontFamily=Helvetica;fontSize=11;fontColor=default;labelBackgroundColor=default;elbow=vertical;endArrow=block;endFill=1;" parent="1" source="L6UTxMjbnMYC1E1mVPvu-33" target="L6UTxMjbnMYC1E1mVPvu-36" edge="1">
          <mxGeometry relative="1" as="geometry" />
        </mxCell>
        <mxCell id="JTVFXVlE0ksMzV7S4W-K-6" value="&lt;span style=&quot;font-size: 16px;&quot;&gt;Veřejný dátový fond&lt;/span&gt;" style="html=1;outlineConnect=0;whiteSpace=wrap;fillColor=#66CCFF;shape=mxgraph.archimate3.application;appType=passive;archiType=square;container=1;verticalAlign=top;strokeColor=#000000;fontStyle=1" vertex="1" parent="1">
          <mxGeometry x="30" y="1500" width="820" height="180" as="geometry" />
        </mxCell>
        <mxCell id="JTVFXVlE0ksMzV7S4W-K-7" value="&lt;span style=&quot;box-sizing: border-box;&quot;&gt;Je tvořený publikovanými veřejnými údaji veřejné správy je základní metodou pro sdílení veřejných informací mezi veřejnoprávními subjekty navzájem i pro sdílení veřejných údajů mezi veřejnoprávní a soukromoprávní sférou v ČR.&lt;/span&gt;&lt;div&gt;&lt;span style=&quot;box-sizing: border-box;&quot;&gt;&lt;p style=&quot;box-sizing: border-box; margin: 0px 0px 10px;&quot;&gt;Základním pojmem je údaj vedený nebo vytvářený v rámci agendy. Pro každý údaj vedený nebo vytvářený v rámci agendy&amp;nbsp; je v&amp;nbsp;&lt;a href=&quot;https://archi.gov.cz/nap:rpp&quot; class=&quot;wikilink1&quot; title=&quot;nap:rpp&quot; data-wiki-id=&quot;nap:rpp&quot; style=&quot;box-sizing: border-box;&quot;&gt;RPP&lt;/a&gt;&amp;nbsp;vedena jeho přístupnost veřejnosti a v případě, že údaj není přístupný veřejnosti, číslo a název právního předpisu a označení jeho ustanovení, na jehož základě není údaj přístupný veřejnosti. Pokud tedy neexistují legislativní překážky ke zveřejnění údaje, jedná se o údaj přístupný veřejnosti (dále jen veřejný údaj). Veřejný údaj je speciálním případem údaje.&lt;br&gt;&lt;span style=&quot;background-color: transparent; color: light-dark(rgb(0, 0, 0), rgb(255, 255, 255));&quot;&gt;Veřejný údaj se poskytuje jako informace ve všech formátech a jazycích, ve kterých byla informace vytvořena; při zveřejnění takové informace v elektronické podobě musí být jeden z těchto formátů otevřený a, je-li to možné, též strojově čitelný. Je-li to možné a vhodné, zveřejní povinný subjekt spolu s informací též metadata, která se k ní vztahují. Formát i metadata by měly co nejvíce splňovat otevřené formální normy.&lt;/span&gt;&lt;/p&gt;&lt;/span&gt;&lt;/div&gt;" style="text;strokeColor=none;align=left;fillColor=none;html=1;verticalAlign=top;whiteSpace=wrap;rounded=0;" vertex="1" parent="JTVFXVlE0ksMzV7S4W-K-6">
          <mxGeometry y="18.181764705882355" width="820.0000000000001" height="133.04999999999998" as="geometry" />
        </mxCell>
      </root>
    </mxGraphModel>
  </diagram>
</mxfile>
